HIERARCHY
ROOT Hips
{
  OFFSET -1.56614 0.00 -1.85809
  CHANNELS 6 Xposition Yposition Zposition Zrotation Xrotation Yrotation
  JOINT LHipJoint
  {
    OFFSET 0 0 0
    CHANNELS 3 Zrotation Xrotation Yrotation
    JOINT LeftUpLeg
    {
      OFFSET 1.8 -1.4 0.085
      CHANNELS 3 Zrotation Xrotation Yrotation
      JOINT LeftLeg
      {
        OFFSET 2.215 -6 0
        CHANNELS 3 Zrotation Xrotation Yrotation
        JOINT LeftFoot
        {
          OFFSET 2.5 -6.9 0
          CHANNELS 3 Zrotation Xrotation Yrotation
          JOINT LeftToeBase
          {
            OFFSET 0.2 -0.5 1.95
            CHANNELS 3 Zrotation Xrotation Yrotation
            End Site
            {
              OFFSET 0 0 1
            }
          }
        }
      }
    }
  }
  JOINT RHipJoint
  {
    OFFSET 0 0 0
    CHANNELS 3 Zrotation Xrotation Yrotation
    JOINT RightUpLeg
    {
      OFFSET -1.8 -1.4 0.085
      CHANNELS 3 Zrotation Xrotation Yrotation
      JOINT RightLeg
      {
        OFFSET -2.215 -6 0
        CHANNELS 3 Zrotation Xrotation Yrotation
        JOINT RightFoot
        {
          OFFSET -2.5 -6.9 0
          CHANNELS 3 Zrotation Xrotation Yrotation
          JOINT RightToeBase
          {
            OFFSET -0.2 -0.5 1.95
            CHANNELS 3 Zrotation Xrotation Yrotation
            End Site
            {
              OFFSET 0 0 1
            }
          }
        }
      }
    }
  }
  JOINT LowerBack
  {
    OFFSET 0 0 0
    CHANNELS 3 Zrotation Xrotation Yrotation
    JOINT Spine
    {
      OFFSET -0.087 1.94 -0.2889
      CHANNELS 3 Zrotation Xrotation Yrotation
      JOINT Spine1
      {
        OFFSET 0 1.95 0.06
        CHANNELS 3 Zrotation Xrotation Yrotation
        JOINT Neck
        {
          OFFSET 0 0 0
          CHANNELS 3 Zrotation Xrotation Yrotation
          JOINT Neck1
          {
            OFFSET 0 1.6 0.34
            CHANNELS 3 Zrotation Xrotation Yrotation
            JOINT Head
            {
              OFFSET 0 1.667 -0.24
              CHANNELS 3 Zrotation Xrotation Yrotation
              End Site
              {
                OFFSET 0 1.686 -0.12
              }
            }
          }
        }
        JOINT LeftShoulder
        {
          OFFSET 0 0 0
          CHANNELS 3 Zrotation Xrotation Yrotation
          JOINT LeftArm
          {
            OFFSET 2.7 1.55 -0.73
            CHANNELS 3 Zrotation Xrotation Yrotation
            JOINT LeftForeArm
            {
              OFFSET 5.45 0 0
              CHANNELS 3 Zrotation Xrotation Yrotation
              JOINT LeftHand
              {
                OFFSET 3.45 0 0
                CHANNELS 3 Zrotation Xrotation Yrotation
                JOINT LeftFingerBase
                {
                  OFFSET 0 0 0
                  CHANNELS 3 Zrotation Xrotation Yrotation
                  JOINT LeftHandIndex1
                  {
                    OFFSET 0.75 0 0
                    CHANNELS 3 Zrotation Xrotation Yrotation
                    End Site
                    {
                      OFFSET 0.6 0 0
                    }
                  }
                }
                JOINT LThumb
                {
                  OFFSET 0 0 0
                  CHANNELS 3 Zrotation Xrotation Yrotation
                  End Site
                  {
                    OFFSET 0.59 0 0.59
                  }
                }
              }
            }
          }
        }
        JOINT RightShoulder
        {
          OFFSET 0 0 0
          CHANNELS 3 Zrotation Xrotation Yrotation
          JOINT RightArm
          {
            OFFSET -2.7 1.55 -0.73
            CHANNELS 3 Zrotation Xrotation Yrotation
            JOINT RightForeArm
            {
              OFFSET -5.45 0 0
              CHANNELS 3 Zrotation Xrotation Yrotation
              JOINT RightHand
              {
                OFFSET -3.45 0 0
                CHANNELS 3 Zrotation Xrotation Yrotation
                JOINT RightFingerBase
                {
                  OFFSET 0 0 0
                  CHANNELS 3 Zrotation Xrotation Yrotation
                  JOINT RightHandIndex1
                  {
                    OFFSET -0.75 0 0
                    CHANNELS 3 Zrotation Xrotation Yrotation
                    End Site
                    {
                      OFFSET -0.6 0 0
                    }
                  }
                }
                JOINT RThumb
                {
                  OFFSET 0 0 0
                  CHANNELS 3 Zrotation Xrotation Yrotation
                  End Site
                  {
                    OFFSET -0.59 0 0.59
                  }
                }
              }
            }
          }
        }
      }
    }
  }
}
MOTION
Frames:	4
Frame Time:	0.00833333
9.47751 15.1884 8.16682 1.77343 -5.43131 43.592 -0 0 3.18055e-015 -40.7944 -45.1917 -31.5115 -101.627 81.865 81.5423 13.7211 -26.7037 34.1722 -3.97569e-015 -1.59028e-015 -3.18055e-015 -0 0 3.18055e-015 25.7337 -30.2415 12.943 61.3056 69.7883 -91.8556 6.1755 -8.18794 3.61677 -4.77083e-015 0 -1.59028e-015 -0 0 3.18055e-015 23.0392 25.3732 12.6031 -22.5941 -10.2772 19.872 -4.1841 -17.1054 -6.34817 -2.02334 19.7647 -5.52073 11.2987 2.7255 -26.3104 0.341825 5.73139e-010 3.50353 -46.0422 -20.9187 25.793 1.27152 27.555 -0.000833532 -0.309178 0.977225 -11.1039 6.36111e-015 1.59028e-015 -1.98785e-016 3.15602e-007 4.71613e-008 2.14403e-007 6.36111e-015 1.59028e-015 -1.98785e-016 7.93679 1.64384 7.06788 69.6735 0.793739 48.7624 -151.66 43.2429 119.592 -48.935 9.27189 -36.1416 -1.68749e-006 8.36088e-008 -1.99334e-007 -5.42744e-007 4.64111e-008 -4.07504e-007 -4.77083e-015 0 -1.39149e-015 
9.50085 15.1483 8.18032 1.74555 -5.46433 43.2715 -0 0 1.27222e-014 -40.3248 -45.6419 -31.2043 -104.684 81.1838 83.9611 14.5893 -27.071 34.9411 8.82781e-032 7.95139e-016 -6.36111e-015 -0 0 1.27222e-014 25.7319 -30.429 13.0327 62.6318 69.8333 -93.1562 5.95128 -8.21201 3.62264 -6.36111e-015 6.36111e-015 -6.36111e-015 -0 0 1.27222e-014 22.6893 25.5972 12.4936 -22.462 -10.5114 19.6817 -4.11183 -17.1904 -6.31918 -1.95708 19.6814 -5.50799 11.1122 2.69377 -26.0977 0.341825 5.73138e-010 3.50353 -45.9828 -20.8706 25.3018 1.32706 28.2637 -0.000682838 -1.30193 1.09991 -11.2004 6.36111e-015 -1.85118e-015 -8.69683e-017 3.15602e-007 4.71613e-008 2.14403e-007 6.36111e-015 -1.85118e-015 -8.69683e-017 8.12574 1.72936 7.52446 68.0683 0.642542 48.9345 -151.751 43.9706 121.099 -53.0581 9.91053 -31.0947 -1.68749e-006 8.36088e-008 -1.99334e-007 -5.42744e-007 4.6411e-008 -4.07504e-007 1.59028e-015 -6.36111e-015 -1.59028e-015 
9.52301 15.1198 8.19391 1.62268 -5.46021 43 0 0 -1.27222e-014 -39.8542 -46.0403 -30.9343 -107.999 80.6387 86.0295 15.7852 -27.5114 36.4821 -5.56597e-015 7.15625e-015 -1.27222e-014 0 0 -1.27222e-014 25.7582 -30.6059 13.1247 63.598 69.8468 -94.0084 5.83265 -8.24338 3.63852 1.59028e-015 0 -1.59028e-015 0 0 -1.27222e-014 22.4593 25.76 12.3523 -22.3983 -10.8262 19.456 -4.05781 -17.2324 -6.27545 -1.91609 19.6416 -5.47588 10.9524 2.74534 -25.8791 0.341825 5.73137e-010 3.50353 -45.8199 -20.8229 24.8142 1.40743 29.2618 -0.000525093 -1.93741 1.23207 -11.6379 3.7932e-032 2.18663e-015 -9.93923e-016 3.15602e-007 4.71613e-008 2.14403e-007 3.7932e-032 2.18663e-015 -9.93923e-016 8.11896 1.73477 7.58296 66.4626 0.795849 48.7626 -152.479 44.1148 122.763 -54.9231 9.58588 -28.2214 -1.68749e-006 8.36088e-008 -1.99334e-007 -5.42744e-007 4.64111e-008 -4.07504e-007 4.77083e-015 0 -1.59028e-015 
9.5445 15.101 8.20645 1.43929 -5.42572 42.7629 7.95139e-016 0 -3.18055e-015 -39.3648 -46.4058 -30.6744 -111.372 80.1911 87.743 17.213 -27.9202 38.5336 -2.38542e-015 -2.38542e-015 6.36111e-015 7.95139e-016 0 -3.18055e-015 25.7876 -30.7588 13.213 64.2462 69.8421 -94.4805 5.80318 -8.29347 3.66941 -3.18055e-015 0 1.59028e-015 7.95139e-016 0 -3.18055e-015 22.2999 25.8694 12.1896 -22.3752 -11.1825 19.2041 -4.01472 -17.2463 -6.22008 -1.89131 19.6299 -5.42928 10.8035 2.85344 -25.6492 0.341825 5.73138e-010 3.50353 -45.5922 -20.7733 24.2904 1.50054 30.4082 -0.000358143 -2.36954 1.36371 -12.233 -3.18055e-015 -3.97569e-016 -3.57812e-015 3.15602e-007 4.71613e-008 2.14403e-007 -3.18055e-015 -3.97569e-016 -3.57812e-015 8.00596 1.70183 7.44865 64.9028 1.02906 48.4112 -153.706 43.9132 124.636 -55.514 9.18073 -26.9188 -1.68749e-006 8.36088e-008 -1.99334e-007 -5.42744e-007 4.64111e-008 -4.07504e-007 -3.18055e-015 -3.18055e-015 -0 
